<svg width="16" height="17" viewBox="0 0 16 17" fill="none" xmlns="http://www.w3.org/2000/svg">
<g clip-path="url(#clip0_6618_24532)">
<path d="M11.78 5.49498C11.2866 5.39136 10.7993 5.26117 10.32 5.10498L9.41997 9.61498C9.35489 9.99945 9.44209 10.3941 9.66308 10.7154C9.88407 11.0367 10.2215 11.2593 10.6038 11.336C10.9861 11.4127 11.3833 11.3375 11.7111 11.1264C12.0389 10.9153 12.2717 10.5848 12.36 10.205L13.27 5.69498C12.77 5.65586 12.2726 5.58909 11.78 5.49498V5.49498Z" fill="#BBBBBB"/>
<path d="M3.55 10.605L0 12.235L4.96 13.705L3.55 10.605Z" fill="#F3F3F3"/>
<path d="M13.0499 6.76489L13.2499 5.76489L9.87994 7.30489L9.68994 8.30489L13.0499 6.76489Z" fill="#808080"/>
<path d="M9.13 0.88501L8.74 2.88501C8.63 3.37501 10.08 4.13501 12 4.51501C13.92 4.89501 15.52 4.76501 15.63 4.22501L16.02 2.22501L9.13 0.88501Z" fill="#D9D9D9"/>
<path d="M15.9958 2.26311C16.1043 1.72159 14.6558 0.974749 12.7605 0.594993C10.8652 0.215237 9.24075 0.346375 9.13225 0.887896C9.02375 1.42942 10.4723 2.17626 12.3676 2.55602C14.2629 2.93577 15.8873 2.80464 15.9958 2.26311Z" fill="#F3F3F3"/>
<path d="M11.19 12.375L7 14.305V16.375L16 12.235V10.165L12.58 11.745C12.1929 12.0937 11.7073 12.3138 11.19 12.375V12.375Z" fill="#BBBBBB"/>
<path d="M10.9 12.375C10.7339 12.3947 10.5661 12.3947 10.4 12.375C9.77724 12.2519 9.22576 11.8938 8.86 11.375L4.95312 13.7031L7 14.305L11.19 12.375H10.9Z" fill="#F3F3F3"/>
<path d="M13.34 10.3751C13.24 10.8957 12.9792 11.3907 12.5859 11.7462L16 10.1651L13.54 9.43506L13.34 10.3751Z" fill="#F3F3F3"/>
<path d="M8.43998 9.37494L9.30998 5.06494L2.47998 5.80494L5.40998 12.2249L8.40998 10.3849C8.34969 10.0498 8.35991 9.70587 8.43998 9.37494V9.37494Z" fill="#89CBFA"/>
<path d="M7.75 2.76489L0 4.47489L1 4.99489L8.46 4.18489C8.22228 4.03663 8.03017 3.82554 7.90488 3.57495C7.77958 3.32437 7.72598 3.04403 7.75 2.76489V2.76489Z" fill="#F3F3F3"/>
<path d="M12.8501 7.75488L9.49005 9.27488L9.42005 9.61488C9.38505 9.80327 9.38505 9.9965 9.42005 10.1849L12.6601 8.73488L12.8501 7.75488Z" fill="#808080"/>
<path d="M4.96 13.7051L1 4.9951L0 4.4751L2.41 12.9451L0 12.2351V14.3051L7 16.3751V14.3051L4.96 13.7051Z" fill="#D9D9D9"/>
</g>
<defs>
<clipPath id="clip0_6618_24532">
<rect width="16" height="16" fill="white" transform="translate(0 0.375)"/>
</clipPath>
</defs>
</svg>
