<svg width="16" height="17" viewBox="0 0 16 17" fill="none" xmlns="http://www.w3.org/2000/svg">
<g clip-path="url(#clip0_6618_24531)">
<path d="M10.58 12.4451C10.3849 12.4396 10.1908 12.4162 10 12.3751C9.61105 12.2987 9.24109 12.146 8.91151 11.9258C8.58192 11.7056 8.29924 11.4223 8.07979 11.0922C7.86035 10.7621 7.7085 10.3918 7.63301 10.0026C7.55753 9.61352 7.5599 9.21329 7.64 8.82509V8.71509L0 12.2351L7 14.3051L11.24 12.3751C11.0235 12.4241 10.802 12.4476 10.58 12.4451V12.4451Z" fill="#F3F3F3"/>
<path d="M13.5101 10.0551C13.3532 10.7752 12.9367 11.4124 12.3401 11.8451L16.0001 10.1651L13.6301 9.46509L13.5101 10.0551Z" fill="#F3F3F3"/>
<path d="M4.99932 13.7071L1 4.9951L0 4.4751L2.41 12.9451L0 12.2351V14.3051L7 16.3751V14.3051L4.99932 13.7071Z" fill="#D9D9D9"/>
<path fill-rule="evenodd" clip-rule="evenodd" d="M2.41934 12.953L1.25293 8.95069L2.04297 8.69531L3.42519 13.3412L2.41934 12.953Z" fill="#666666"/>
<path d="M9.63926 4.13572L8.61763 9.03023C8.39194 10.1115 9.08552 11.171 10.1668 11.3967C11.2481 11.6224 12.3076 10.9288 12.5332 9.84753L13.5549 4.95302C13.7806 3.87175 13.087 2.81225 12.0057 2.58656C10.9245 2.36087 9.86495 3.05445 9.63926 4.13572Z" fill="#BBBBBB"/>
<path d="M12.3267 6.70508L12.5515 5.70508L10.0896 6.42508L9.85352 7.42508L12.3267 6.70508Z" fill="#808080"/>
<path d="M9.43764 9.23504C9.42704 9.28123 9.42704 9.32885 9.43764 9.37504L11.8996 8.66504L12.1244 7.66504L9.62875 8.37504L9.43764 9.23504Z" fill="#808080"/>
<path d="M11.24 12.375L7 14.305V16.375L16 12.235V10.165L12.34 11.845C12.0148 12.0973 11.6399 12.2779 11.24 12.375V12.375Z" fill="#BBBBBB"/>
<path d="M8.06 11.085C7.84486 10.7544 7.69702 10.3846 7.62495 9.99682C7.55289 9.60902 7.558 9.21082 7.64 8.825L8.33 5.495C7.83182 5.23558 7.41097 4.84923 7.11 4.375L1 4.995L5 13.705L8.47 11.575C8.31748 11.4256 8.18014 11.2615 8.06 11.085Z" fill="#67B1E6"/>
<path d="M8.06 11.085L7.89 10.755L5.41 12.265L2.48 5.845L8 5.245C7.64161 5.02571 7.33737 4.72831 7.11 4.375L1 4.995L5 13.705L8.47 11.575C8.31748 11.4256 8.18014 11.2615 8.06 11.085Z" fill="black" fill-opacity="0.2"/>
<path d="M6.83 2.96509L0 4.47509L1 4.99509L7.11 4.37509C6.8537 3.95266 6.75455 3.45339 6.83 2.96509V2.96509Z" fill="#F3F3F3"/>
<path d="M13.51 10.0551C13.496 10.1202 13.4759 10.1838 13.45 10.2451L15.2 10.7651V11.7651L6.94 15.5651L0.8 13.7051V12.7051L2.29 12.0251L2.91 11.7451L2.72 11.0851L1 5.07509L6.88 3.77509C6.82718 3.50767 6.82718 3.2325 6.88 2.96509L0 4.47509L1.93591 11.3472L0 12.2351V14.3051L7 16.3751L16 12.2351V10.1651L13.63 9.46509L13.51 10.0551Z" fill="#666666"/>
<path fill-rule="evenodd" clip-rule="evenodd" d="M9.60752 4.15764C9.65024 3.88637 9.74737 3.62667 9.89299 3.39428C10.0386 3.1619 10.2297 2.96169 10.4547 2.80582C10.6796 2.64994 10.9338 2.54165 11.2016 2.48752C11.4695 2.43338 11.7455 2.43454 12.0129 2.49091C12.2803 2.54728 12.5335 2.65769 12.7572 2.81545C12.9809 2.9732 13.1703 3.175 13.314 3.40859C13.4577 3.64218 13.5527 3.90269 13.5931 4.17431C13.6336 4.44592 13.6188 4.72298 13.5495 4.98864L12.5413 9.94423C12.4074 10.4432 12.089 10.872 11.6511 11.1428C11.2132 11.4137 10.6889 11.5061 10.1855 11.4013C9.68199 11.2964 9.23738 11.0022 8.94256 10.5788C8.64773 10.1554 8.52496 9.63476 8.59934 9.12337L9.60752 4.15764ZM12.5715 4.77582C12.625 4.50705 12.5701 4.22793 12.4188 3.99987C12.2676 3.77181 12.0324 3.61348 11.765 3.55973C11.4976 3.50597 11.2199 3.56119 10.9931 3.71323C10.7662 3.86527 10.6087 4.10169 10.5552 4.37046L9.54702 9.32605C9.49221 9.59482 9.54586 9.87448 9.69617 10.1035C9.84648 10.3325 10.0811 10.4921 10.3485 10.5472C10.6159 10.6023 10.8941 10.5484 11.1219 10.3973C11.3498 10.2462 11.5086 10.0103 11.5634 9.74155L12.5715 4.77582Z" fill="#666666"/>
<path d="M14.9754 2.95481C15.0883 2.41418 13.865 1.70147 12.2431 1.36293C10.6212 1.0244 9.21488 1.18823 9.10203 1.72886C8.98918 2.26949 10.2125 2.9822 11.8344 3.32074C13.4563 3.65928 14.8626 3.49545 14.9754 2.95481Z" fill="#F3F3F3"/>
<path d="M11.8761 3.0751C10.2561 2.7351 8.97613 2.1351 9.09613 1.7251L8.78613 3.1951C8.70613 3.5951 9.94613 4.1951 11.5761 4.5451C13.2061 4.8951 14.5761 4.8251 14.6661 4.4251L14.9761 2.9551C14.8861 3.3751 13.5061 3.3751 11.8761 3.0751Z" fill="#D9D9D9"/>
<path fill-rule="evenodd" clip-rule="evenodd" d="M8.1163 1.52504C8.4163 0.10504 10.6063 0.25504 12.3863 0.62504C14.1663 0.99504 16.2463 1.74504 15.9763 3.15504L15.6763 4.62504C15.3563 6.11504 12.8563 5.82504 11.3963 5.52504C9.9363 5.22504 7.5263 4.52504 7.8363 2.99504L8.1163 1.52504ZM14.9763 2.95504C15.0663 2.55504 13.8163 1.95504 12.1963 1.60504C10.5763 1.25504 9.1963 1.32504 9.1063 1.72504L8.7863 3.19504C8.7063 3.59504 9.9463 4.19504 11.5763 4.54504C13.2063 4.89504 14.5763 4.82504 14.6663 4.42504L14.9763 2.95504Z" fill="#666666"/>
</g>
<defs>
<clipPath id="clip0_6618_24531">
<rect width="16" height="16" fill="white" transform="translate(0 0.375)"/>
</clipPath>
</defs>
</svg>
