<svg width="16" height="16" viewBox="0 0 16 16" fill="none" xmlns="http://www.w3.org/2000/svg">
<g clip-path="url(#clip0_23_1108)">
<path d="M12 13H1V15H12V13Z" fill="#D9D9D9"/>
<path d="M16 0V11L12 15V10C12 6.8 12.36 5.61 12.8 4.5C12.94 4.16 13.1 3.82 13.28 3.5C13.46 3.15 13.68 2.82 13.91 2.5C14.06 2.29 14.22 2.09 14.39 1.88L15.99 0H16Z" fill="#BBBBBB"/>
<path fill-rule="evenodd" clip-rule="evenodd" d="M4.39128 5.97587C3.52802 6.22248 2.49497 6.39471 1.1378 6.45565C1.04771 6.9679 0.998962 7.48768 0.998962 8.00336V10.5071H11V9.99995C11 6.58995 11.45 5.2699 11.91 4.1299C11.9892 3.9318 12.0759 3.73859 12.1674 3.55151C10.9956 3.62286 10.1094 3.7628 9.40067 3.93676C8.37347 4.18888 7.68121 4.52089 6.97261 4.88129L6.78931 4.97483C6.122 5.31589 5.38752 5.69128 4.39128 5.97587Z" fill="#67B1E6"/>
<path fill-rule="evenodd" clip-rule="evenodd" d="M0.998962 8.00336C0.998962 7.48768 1.04771 6.9679 1.1378 6.45565C1.50439 6.43919 1.84732 6.41461 2.16965 6.38264C2.05894 6.92126 1.99896 7.46755 1.99896 8.00336V10.5071H0.998962V8.00336ZM11 10.5071V9.99995C11 6.58995 11.45 5.2699 11.91 4.1299C11.9892 3.9318 12.0759 3.73859 12.1674 3.55151C11.7524 3.57678 11.3732 3.61065 11.0251 3.65159C11.0106 3.68658 10.9962 3.72175 10.9821 3.7571C10.4719 5.02168 9.99999 6.46963 9.99999 9.99995V10.5071H11Z" fill="black" fill-opacity="0.2"/>
<path d="M0 9.5C6.82955 9.5 3.08547 8.49999 13.01 8.5" stroke="#003C66"/>
<path d="M0 7.5C6 7.5 6.00561 5.5 13 5.5" stroke="#003C66"/>
<path fill-rule="evenodd" clip-rule="evenodd" d="M4.25394 5.49514C3.22009 5.79048 1.90813 5.98 0 5.98V4.98C1.84187 4.98 3.05716 4.79702 3.97926 4.53361C4.83171 4.29009 5.45023 3.9743 6.12319 3.63071C6.17922 3.6021 6.23563 3.5733 6.29258 3.54433C7.03687 3.16577 7.84939 2.77303 9.0431 2.48004C10.2311 2.18843 11.7773 2 14 2V3C11.8317 3 10.3699 3.18407 9.28148 3.45121C8.19876 3.71697 7.4664 4.06923 6.74593 4.43567C6.68764 4.46531 6.62928 4.49514 6.57069 4.52509C5.90174 4.86698 5.2033 5.22394 4.25394 5.49514Z" fill="#24B353"/>
<path fill-rule="evenodd" clip-rule="evenodd" d="M4.39999 0.6L4.90999 0H4.91999H16.04L15 1.21441V1.02002H14C11.7228 1.02002 10.0924 1.21282 8.80472 1.52888C7.50006 1.84911 6.60741 2.28231 5.83923 2.67302L5.66846 2.76009C4.99501 3.10393 4.45371 3.37809 3.70457 3.59209C3.24802 3.72251 2.6936 3.83546 1.97896 3.90923C2.60027 2.6766 3.50013 1.6383 4.39999 0.6Z" fill="#F3F3F3"/>
<path fill-rule="evenodd" clip-rule="evenodd" d="M15.9952 0H15.9885H15H14.9952H4.87097C4.71692 0.181544 4.561 0.36265 4.40477 0.544122C3.49965 1.59546 2.58396 2.65908 1.96029 3.89112C2.4418 3.84207 2.8509 3.77529 3.20643 3.69733C3.73968 2.83847 4.41084 2.06347 5.07332 1.2985C5.15959 1.19889 5.24571 1.09944 5.33137 1H14H14.9952H15V4L15 10.5858L11.5858 14L2 13.9998V13.01H1V14V15H2H12L16 11L16 1.5444V0.00978921V0.00568504V0L15.9952 0.00568504V0Z" fill="#666666"/>
<path d="M13 11H0V12H13V11Z" fill="#24B353"/>
</g>
<defs>
<clipPath id="clip0_23_1108">
<rect width="16" height="16" fill="white"/>
</clipPath>
</defs>
</svg>
