<svg width="16" height="16" viewBox="0 0 16 16" fill="none" xmlns="http://www.w3.org/2000/svg">
<path fill-rule="evenodd" clip-rule="evenodd" d="M15 4L8 0V8L15 12V4Z" fill="#D9D9D9"/>
<path fill-rule="evenodd" clip-rule="evenodd" d="M8 8L1 12L8 16L15 12L8 8Z" fill="#F3F3F3"/>
<path fill-rule="evenodd" clip-rule="evenodd" d="M8 0L1 4V12L8 8V0Z" fill="#BBBBBB"/>
<path d="M4.08012 9.99982C3.84443 9.64414 3.70409 9.23386 3.67257 8.80835C3.64105 8.38283 3.7194 7.95635 3.90012 7.56982C3.41359 7.93377 3.07692 8.46304 2.95352 9.05796C2.83011 9.65288 2.92849 10.2724 3.23012 10.7998C3.43505 11.2188 3.74772 11.5758 4.13607 11.8341C4.52442 12.0924 4.97449 12.2428 5.44012 12.2698C5.79443 12.1359 6.13042 11.9579 6.44012 11.7398C5.94737 11.6299 5.48298 11.4183 5.07662 11.1187C4.67026 10.8191 4.33086 10.438 4.08012 9.99982Z" fill="#BBBBBB"/>
<path fill-rule="evenodd" clip-rule="evenodd" d="M8 0L1 4L8 8L15 4L8 0ZM5 4L8 2.3L11 4L8 5.7L5 4Z" fill="#F3F3F3"/>
<path fill-rule="evenodd" clip-rule="evenodd" d="M1 4V12L8 16V8L1 4ZM6.65 10.86C6.63444 11.1004 6.56194 11.3337 6.4385 11.5406C6.31505 11.7475 6.14419 11.9221 5.94 12.05C5.74081 12.1697 5.51239 12.232 5.28 12.23C4.83093 12.1895 4.39963 12.035 4.0269 11.7813C3.65417 11.5276 3.35235 11.1829 3.15 10.78C2.81806 10.2195 2.6711 9.56873 2.73 8.92C2.74716 8.67862 2.82025 8.44453 2.94347 8.23626C3.0667 8.02799 3.23669 7.85125 3.44 7.72C3.64546 7.60782 3.87592 7.54935 4.11 7.55C4.55731 7.59215 4.98656 7.74735 5.35741 8.00099C5.72826 8.25464 6.02853 8.59841 6.23 9C6.56856 9.55782 6.71601 10.2108 6.65 10.86Z" fill="#D9D9D9"/>
<path d="M8 2.64998L10.36 3.99998L8 5.34998L5.64 3.99998L8 2.64998ZM8 1.72998L4 3.99998L8 6.26998L12 3.99998L8 1.72998Z" fill="#178FE6"/>
<path d="M6.48003 11.23C6.08655 11.1844 5.71057 11.0418 5.3859 10.8148C5.06123 10.5879 4.79805 10.2839 4.62003 9.93001C4.31684 9.42878 4.18356 8.84307 4.24003 8.26001C4.26646 8.0256 4.34505 7.80008 4.47003 7.60001C4.35081 7.5806 4.22924 7.5806 4.11003 7.60001C3.91679 7.59822 3.72556 7.63919 3.55003 7.72001C3.42634 8.1656 3.39625 8.63198 3.46165 9.08978C3.52705 9.54757 3.68652 9.98687 3.93003 10.38C4.14709 10.7764 4.44255 11.1244 4.79842 11.4029C5.15429 11.6814 5.56313 11.8846 6.00003 12C6.2596 11.8159 6.44699 11.5472 6.53003 11.24L6.48003 11.23Z" fill="#178FE6"/>
<path fill-rule="evenodd" clip-rule="evenodd" d="M3.08918 8.91236C3.16426 8.42633 3.39202 8.10882 3.67675 7.95517C3.96149 7.80153 4.35191 7.78547 4.79937 7.98953C5.2474 8.19385 5.70424 8.6042 6.02331 9.19551C6.34238 9.78681 6.43457 10.3939 6.35939 10.8806C6.28431 11.3666 6.05656 11.6841 5.77182 11.8378C5.48708 11.9914 5.09666 12.0075 4.6492 11.8034C4.20117 11.5991 3.74433 11.1887 3.42526 10.5974C3.10619 10.0061 3.014 9.399 3.08918 8.91236ZM2.72122 10.9773C1.93287 9.51635 2.19059 7.84808 3.29685 7.25113C4.40311 6.65419 5.939 7.35463 6.72735 8.8156C7.5157 10.2766 7.25798 11.9449 6.15172 12.5418C5.04546 13.1387 3.50957 12.4383 2.72122 10.9773Z" fill="#178FE6"/>
<path d="M11.9201 9.99982C12.1558 9.64414 12.2962 9.23386 12.3277 8.80835C12.3592 8.38283 12.2808 7.95635 12.1001 7.56982C12.5867 7.93377 12.9233 8.46304 13.0467 9.05796C13.1701 9.65288 13.0718 10.2724 12.7701 10.7998C12.5652 11.2188 12.2525 11.5758 11.8642 11.8341C11.4758 12.0924 11.0258 12.2428 10.5601 12.2698C10.2058 12.1359 9.86983 11.9579 9.56013 11.7398C10.0529 11.6299 10.5173 11.4183 10.9236 11.1187C11.33 10.8191 11.6694 10.438 11.9201 9.99982Z" fill="#D9D9D9"/>
<path fill-rule="evenodd" clip-rule="evenodd" d="M15 4V12L8 16V8L15 4ZM9.35 10.86C9.36556 11.1004 9.43806 11.3337 9.5615 11.5406C9.68495 11.7475 9.85581 11.9221 10.06 12.05C10.2592 12.1697 10.4876 12.232 10.72 12.23C11.1691 12.1895 11.6004 12.035 11.9731 11.7813C12.3458 11.5276 12.6476 11.1829 12.85 10.78C13.1819 10.2195 13.3289 9.56873 13.27 8.92C13.2528 8.67862 13.1798 8.44453 13.0565 8.23626C12.9333 8.02799 12.7633 7.85125 12.56 7.72C12.3545 7.60782 12.1241 7.54935 11.89 7.55C11.4427 7.59215 11.0134 7.74735 10.6426 8.00099C10.2717 8.25464 9.97147 8.59841 9.77 9C9.43144 9.55782 9.28399 10.2108 9.35 10.86Z" fill="#BBBBBB"/>
<path d="M9.52022 11.23C9.9137 11.1844 10.2897 11.0418 10.6143 10.8148C10.939 10.5879 11.2022 10.2839 11.3802 9.93001C11.6834 9.42878 11.8167 8.84307 11.7602 8.26001C11.7338 8.0256 11.6552 7.80008 11.5302 7.60001C11.6494 7.5806 11.771 7.5806 11.8902 7.60001C12.0834 7.59822 12.2747 7.63919 12.4502 7.72001C12.5739 8.1656 12.604 8.63198 12.5386 9.08978C12.4732 9.54757 12.3137 9.98687 12.0702 10.38C11.8532 10.7764 11.5577 11.1244 11.2018 11.4029C10.846 11.6814 10.4371 11.8846 10.0002 12C9.74065 11.8159 9.55326 11.5472 9.47022 11.24L9.52022 11.23Z" fill="#178FE6"/>
<path fill-rule="evenodd" clip-rule="evenodd" d="M12.9108 8.91236C12.8357 8.42633 12.608 8.10882 12.3232 7.95517C12.0385 7.80153 11.6481 7.78547 11.2006 7.98953C10.7526 8.19385 10.2958 8.6042 9.97669 9.19551C9.65762 9.78681 9.56543 10.3939 9.64061 10.8806C9.71569 11.3666 9.94344 11.6841 10.2282 11.8378C10.5129 11.9914 10.9033 12.0075 11.3508 11.8034C11.7988 11.5991 12.2557 11.1887 12.5747 10.5974C12.8938 10.0061 12.986 9.399 12.9108 8.91236ZM13.2788 10.9773C14.0671 9.51635 13.8094 7.84808 12.7031 7.25113C11.5969 6.65419 10.061 7.35463 9.27265 8.8156C8.4843 10.2766 8.74202 11.9449 9.84828 12.5418C10.9545 13.1387 12.4904 12.4383 13.2788 10.9773Z" fill="#178FE6"/>
<path d="M8 0.92L14.2 4.46V11.54L8 15.08L1.8 11.54V4.46L8 0.92ZM8 0L1 4V12L8 16L15 12V4L8 0Z" fill="#666666"/>
<path d="M8 0.92L13.39 4L8 7.08L2.61 4L8 0.92ZM8 0L1 4L8 8L15 4L8 0Z" fill="#178FE6"/>
</svg>
