<svg width="16" height="16" viewBox="0 0 16 16" fill="none" xmlns="http://www.w3.org/2000/svg">
<path fill-rule="evenodd" clip-rule="evenodd" d="M15 4L8 0V8L15 12V4Z" fill="#D9D9D9"/>
<path fill-rule="evenodd" clip-rule="evenodd" d="M8 8L1 12L8 16L15 12L8 8Z" fill="#F3F3F3"/>
<path fill-rule="evenodd" clip-rule="evenodd" d="M8 0L1 4V12L8 8V0Z" fill="#BBBBBB"/>
<path fill-rule="evenodd" clip-rule="evenodd" d="M8 0L1 4L8 8L15 4L8 0ZM5 4L8 2.3L11 4L8 5.7L5 4Z" fill="#F3F3F3"/>
<path d="M8 2.64998L10.36 3.99998L8 5.34998L5.64 3.99998L8 2.64998ZM8 1.72998L4 3.99998L8 6.26998L12 3.99998L8 1.72998Z" fill="#178FE6"/>
<path fill-rule="evenodd" clip-rule="evenodd" d="M1 4V12L8 16V8L1 4ZM6.55 11.58C6.48451 11.8672 6.33478 12.1284 6.12 12.33C6.05632 12.3912 5.98586 12.4448 5.91 12.49C5.71503 12.6001 5.49387 12.6554 5.27 12.65C4.75976 12.5856 4.27345 12.3957 3.85461 12.0973C3.43576 11.7989 3.09747 11.4012 2.87 10.94C2.48296 10.3069 2.29808 9.57086 2.34 8.83C2.34726 8.57264 2.41539 8.32065 2.5388 8.09469C2.66221 7.86873 2.83739 7.67522 3.05 7.53C3.12888 7.48646 3.21285 7.45287 3.3 7.43C3.42935 7.38909 3.56434 7.36884 3.7 7.37C3.85603 7.36943 4.0112 7.39304 4.16 7.44C4.99636 7.71173 5.69287 8.30052 6.1 9.08C6.56735 9.8239 6.72862 10.7198 6.55 11.58Z" fill="#D9D9D9"/>
<path d="M8 0.92L13.39 4L8 7.08L2.61 4L8 0.92ZM8 0L1 4L8 8L15 4L8 0Z" fill="#178FE6"/>
<path d="M3.99992 10.1702C3.41992 9.17016 3.59992 8.17016 3.18992 7.41016C2.37992 7.93016 2.11992 9.68016 2.84992 10.9402C3.08433 11.3961 3.42455 11.7893 3.8421 12.0868C4.25965 12.3843 4.7424 12.5775 5.24992 12.6502C5.54138 12.6488 5.83109 12.605 6.10992 12.5202C5.99992 11.6802 4.59992 11.1702 3.99992 10.1702Z" fill="#BBBBBB"/>
<path d="M4.45997 10.0002C4.11862 9.42401 3.95836 8.75855 3.99997 8.09016C4.01087 7.86281 4.07237 7.64074 4.17997 7.44016C4.03117 7.3932 3.876 7.36959 3.71997 7.37016C3.58431 7.36901 3.44932 7.38926 3.31997 7.43016C3.18846 7.93572 3.16233 8.46292 3.24318 8.97901C3.32403 9.4951 3.51015 9.98905 3.78997 10.4302C4.03222 10.8909 4.36538 11.2976 4.76929 11.6259C5.17321 11.9542 5.63949 12.1972 6.13997 12.3402C6.35475 12.1385 6.50448 11.8774 6.56997 11.5902C6.11517 11.5176 5.68506 11.3347 5.31725 11.0576C4.94943 10.7804 4.6551 10.4173 4.45997 10.0002Z" fill="#178FE6"/>
<path fill-rule="evenodd" clip-rule="evenodd" d="M8 8V16L15 12V4L8 8ZM9.9 9.08C10.3071 8.30052 11.0036 7.71173 11.84 7.44C11.9888 7.39304 12.144 7.36943 12.3 7.37C12.4357 7.36884 12.5707 7.38909 12.7 7.43C12.7871 7.45287 12.8711 7.48646 12.95 7.53C13.1626 7.67522 13.3378 7.86873 13.4612 8.09469C13.5846 8.32065 13.6527 8.57264 13.66 8.83C13.7019 9.57086 13.517 10.3069 13.13 10.94C12.9025 11.4012 12.5642 11.7989 12.1454 12.0973C11.7265 12.3957 11.2402 12.5856 10.73 12.65C10.5061 12.6554 10.285 12.6001 10.09 12.49C10.0141 12.4448 9.94368 12.3912 9.88 12.33C9.66522 12.1284 9.51549 11.8672 9.45 11.58C9.27138 10.7198 9.43265 9.8239 9.9 9.08Z" fill="#BBBBBB"/>
<path d="M11.9999 10.1702C12.5799 9.17016 12.3999 8.17016 12.8099 7.41016C13.6199 7.93016 13.8799 9.68016 13.1499 10.9402C12.9155 11.3961 12.5753 11.7893 12.1577 12.0868C11.7402 12.3843 11.2574 12.5775 10.7499 12.6502C10.4584 12.6488 10.1687 12.605 9.88989 12.5202C9.99989 11.6802 11.3999 11.1702 11.9999 10.1702Z" fill="#D9D9D9"/>
<path d="M9.44995 11.5799C9.51545 11.8671 9.66517 12.1283 9.87995 12.3299C10.3804 12.1869 10.8467 11.944 11.2506 11.6157C11.6545 11.2874 11.9877 10.8806 12.23 10.4199C12.5098 9.97879 12.6959 9.48484 12.7767 8.96876C12.8576 8.45267 12.8315 7.92547 12.7 7.41991C12.5706 7.379 12.4356 7.35875 12.3 7.35991C12.1439 7.35934 11.9887 7.38295 11.84 7.42991C11.9476 7.63049 12.009 7.85255 12.02 8.07991C12.0576 8.75371 11.8902 9.4231 11.54 9.99991C11.3454 10.4127 11.0536 10.7722 10.6896 11.0474C10.3255 11.3226 9.90016 11.5053 9.44995 11.5799Z" fill="#178FE6"/>
<path fill-rule="evenodd" clip-rule="evenodd" d="M13.3376 8.83089C13.2709 8.2697 13.0301 7.92871 12.7445 7.77463C12.459 7.62055 12.0418 7.60648 11.5361 7.85875C11.0328 8.1098 10.5126 8.599 10.1393 9.29078C9.76602 9.98256 9.64271 10.6859 9.70916 11.2444C9.77593 11.8056 10.0167 12.1466 10.3023 12.3007C10.5878 12.4547 11.005 12.4688 11.5107 12.2165C12.014 11.9655 12.5342 11.4763 12.9075 10.7845C13.2808 10.0927 13.4041 9.38934 13.3376 8.83089ZM13.6115 11.1644C14.4957 9.52575 14.2777 7.69289 13.1244 7.07059C11.9712 6.4483 10.3195 7.27222 9.43526 8.91088C8.55104 10.5495 8.76912 12.3824 9.92236 13.0047C11.0756 13.627 12.7273 12.8031 13.6115 11.1644Z" fill="#178FE6"/>
<path fill-rule="evenodd" clip-rule="evenodd" d="M2.70925 8.83089C2.77602 8.2697 3.01681 7.92871 3.30235 7.77463C3.58789 7.62055 4.00509 7.60648 4.51081 7.85875C5.01406 8.1098 5.53428 8.599 5.90757 9.29078C6.28086 9.98256 6.40417 10.6859 6.33772 11.2444C6.27095 11.8056 6.03016 12.1466 5.74461 12.3007C5.45907 12.4547 5.04188 12.4688 4.53616 12.2165C4.0329 11.9655 3.51268 11.4763 3.13939 10.7845C2.76611 10.0927 2.6428 9.38934 2.70925 8.83089ZM2.43535 11.1644C1.55113 9.52575 1.7692 7.69289 2.92245 7.07059C4.07569 6.4483 5.72738 7.27222 6.61161 8.91088C7.49584 10.5495 7.27776 12.3824 6.12452 13.0047C4.97128 13.627 3.31958 12.8031 2.43535 11.1644Z" fill="#178FE6"/>
</svg>
