<svg width="16" height="16" viewBox="0 0 16 16" fill="none" xmlns="http://www.w3.org/2000/svg">
<g clip-path="url(#clip0_7921_34532)">
<path d="M7.41515 15.5C5.24659 15.5 3.10802 14.79 0.499756 13.22V11.81L1.11934 11.5H13.4111L14.4904 11.86V13.21C11.7922 14.78 9.62367 15.48 7.46511 15.5H7.41515Z" fill="#D9D9D9"/>
<path d="M13.3311 12L13.9907 12.22V12.92C11.4923 14.34 9.46369 14.98 7.46502 15H7.41506C5.41639 15 3.41772 14.36 0.999334 12.94V12.12L1.23917 12H13.3311ZM13.491 11H0.999334L0 11.5V13.5C2.80813 15.24 5.11659 16 7.41506 16C7.43504 16 7.45503 16 7.47502 16C9.79347 15.99 12.1319 15.2 14.99 13.5V11.5L13.491 11Z" fill="#666666"/>
<path d="M7.49505 8.5C9.45374 8.5 12.112 7.7 14.9401 6.04C14.9901 5.01 14.3105 4.11 13.9907 3.75H0.99938C0.679593 4.11 4.61706e-05 5.01 0.0400195 6.03C2.86813 7.7 5.53636 8.5 7.49505 8.5Z" fill="#67B1E6"/>
<path d="M13.481 9.50003C13.481 8.90003 14.4104 7.37003 14.4704 7.29003C14.6003 7.11003 14.6802 6.96003 14.7402 6.84003C14.8701 6.57003 14.9201 6.30003 14.93 6.04003C12.1119 7.70003 9.4537 8.50003 7.495 8.50003C5.53631 8.50003 2.86809 7.70003 0.0399733 6.03003C0.05996 6.44003 0.189873 6.87003 0.519654 7.30003C0.579614 7.37003 1.51899 8.45003 1.51899 9.50003C1.51899 10.71 0.08994 11.47 0 11.5C2.27848 12.91 4.99667 14 7.51499 14C10.0033 14 12.1219 13.2 14.95 11.53C14.96 11.52 14.98 11.51 14.98 11.51C14.99 11.51 15 11.5 15 11.5C15 11.5 13.481 10.73 13.481 9.50003Z" fill="#4795CC"/>
<path fill-rule="evenodd" clip-rule="evenodd" d="M13.9906 3.75C12.6315 4.46 9.21379 5.5 7.49494 5.5C5.77608 5.5 2.73811 4.46 0.999268 3.75L7.49494 0L13.9906 3.75Z" fill="#89CBFA"/>
<path d="M7.495 1.15L13.3411 4.53C13.8408 5.13 14.2505 5.95 13.6809 6.68C13.6709 6.7 12.4817 8.49 12.4817 9.5C12.4817 10.27 12.8215 10.89 13.2212 11.35C11.0227 12.53 9.34377 13 7.51499 13C5.81612 13 3.81745 12.42 1.77881 11.36C2.18854 10.88 2.52831 10.26 2.52831 9.5C2.52831 8.33 1.76882 7.23 1.31912 6.68C0.849434 6.09 0.95936 5.36 1.6489 4.53L7.495 1.15ZM7.495 0L0.999334 3.75C0.549634 4.26 -0.639574 5.81 0.519654 7.3C0.579614 7.37 1.51899 8.45 1.51899 9.5C1.51899 10.71 0.08994 11.47 0 11.5C2.27848 12.91 4.99667 14 7.51499 14H7.52498C10.0133 14 12.1319 13.2 14.95 11.53C14.96 11.52 14.98 11.51 14.98 11.51C14.99 11.51 15 11.5 15 11.5C15 11.5 13.491 10.73 13.491 9.5C13.491 8.9 14.4204 7.37 14.4803 7.29C15.6296 5.8 14.4404 4.26 13.9907 3.75L7.495 0Z" fill="black" fill-opacity="0.2"/>
<path d="M13.481 9.49999C13.481 9.42999 13.491 9.33999 13.5209 9.23999C11.3424 10.36 9.19383 11 7.49496 11C5.81608 11 3.6875 10.37 1.49896 9.25999C1.50895 9.33999 1.51894 9.41999 1.51894 9.49999C1.51894 9.78999 1.439 10.05 1.30908 10.28C3.5376 11.38 5.72614 12 7.49496 12C9.27377 12 11.4723 11.37 13.6908 10.27C13.5709 10.04 13.481 9.77999 13.481 9.49999Z" fill="#003C66"/>
<path d="M7.49493 7.99996C5.51624 7.99996 2.66814 6.97996 0.079869 5.45996C0.079869 5.45996 0.0299023 5.85996 0.0398957 6.02996C0.0598823 6.24996 0.0898623 6.45996 0.169809 6.67996C2.77807 8.14996 5.4263 8.99996 7.49493 8.99996C9.56355 8.99996 12.2218 8.14996 14.8001 6.68996C14.88 6.46996 14.91 6.36996 14.94 6.03996C14.95 5.92996 14.91 5.51996 14.91 5.51996C12.3317 7.03996 9.49359 7.99996 7.49493 7.99996Z" fill="#003C66"/>
<path d="M7.49507 3.00007C8.64431 3.00007 9.98342 2.73007 11.3825 2.25007L10.2133 1.57007C9.23392 1.84007 8.31453 2.00007 7.49507 2.00007C6.68561 2.00007 5.75623 1.84007 4.77689 1.57007L3.60767 2.25007C5.00673 2.73007 6.34584 3.00007 7.49507 3.00007Z" fill="#003C66"/>
<path d="M7.49508 6.0001C9.40381 6.0001 11.8122 5.2801 14.2006 4.0201C14.1207 3.9201 14.0507 3.8201 13.9908 3.7501L13.3012 3.3501C11.1926 4.4001 9.13399 5.0001 7.49508 5.0001C5.86617 5.0001 3.80754 4.4101 1.68895 3.3501L0.999411 3.7501C0.939451 3.8201 0.859504 3.9101 0.789551 4.0201C3.18795 5.2801 5.58635 6.0001 7.49508 6.0001Z" fill="#003C66"/>
</g>
<defs>
<clipPath id="clip0_7921_34532">
<rect width="16" height="16" fill="white"/>
</clipPath>
</defs>
</svg>
