<svg width="16" height="16" viewBox="0 0 16 16" fill="none" xmlns="http://www.w3.org/2000/svg">
<g clip-path="url(#clip0_7921_34533)">
<path d="M0.0399905 6.16992C0.0799639 6.58992 0.269836 7.04992 0.709543 7.50992C1.40908 8.24992 1.59895 8.92992 1.529 9.49992C1.46904 10.0499 0.739524 10.5499 0.0100098 10.4999C2.02866 11.7099 4.98669 13.0099 7.51501 12.9999C10.0133 12.9899 12.4317 11.9799 15 10.4999C13.9307 10.5599 13.571 10.0399 13.491 9.49992C13.4111 8.92992 13.591 8.25992 14.2905 7.51992C14.7302 7.04992 14.9201 6.59992 14.9601 6.16992C12.1319 7.80992 9.46371 8.58992 7.49502 8.58992C5.52633 8.59992 2.85811 7.80992 0.0399905 6.16992Z" fill="#67B1E6"/>
<path d="M13.9908 4H0.99944C0.66966 4.37 -0.0598531 5.19 0.0400804 6.17C2.8682 7.8 5.52642 8.59 7.49511 8.59C9.4638 8.59 12.132 7.8 14.9601 6.17C15.0501 5.19 14.3206 4.37 13.9908 4Z" fill="#89CBFA"/>
<path d="M14.97 11.51C14.96 11.52 14.95 11.53 14.94 11.53C12.1219 13.2 9.79348 13.98 7.505 14C7.01533 14 6.54564 13.97 6.10593 13.92C4.22718 13.68 2.27848 12.91 0 11.5V13.5C2.82812 15.25 5.15656 16.01 7.47502 16C9.79348 15.99 12.1319 15.2 14.99 13.5V11.5C14.99 11.5 14.98 11.51 14.97 11.51Z" fill="#D9D9D9"/>
<path fill-rule="evenodd" clip-rule="evenodd" d="M13.9906 4C12.9713 4.3 10.7028 5.48 7.50493 5.48C4.14717 5.48 2.0086 4.4 0.999268 4L7.49494 0L13.9906 4Z" fill="#B2DFFF"/>
<path d="M13.8409 10.2C11.5724 11.35 9.31388 12 7.49509 12C5.66631 12 3.38782 11.34 1.08936 10.16C1.3292 9.98002 1.48909 9.75002 1.51907 9.50002C1.52906 9.43002 1.52906 9.35002 1.52906 9.28002C3.70761 10.39 5.8262 11 7.49509 11C9.17397 11 11.3026 10.38 13.4711 9.27002C13.4711 9.35002 13.4711 9.43002 13.4811 9.50002C13.5211 9.76002 13.621 10.01 13.8409 10.2Z" fill="#014F7F"/>
<path d="M14.96 6.17002C14.95 6.33002 14.9101 6.50002 14.8501 6.66002C12.2518 8.14002 9.57362 9.00002 7.49501 9.00002C5.41639 9.00002 2.75816 8.15002 0.1499 6.66002C0.0899397 6.50002 0.059961 6.33002 0.0399743 6.17002C0.0299809 6.10002 0.0299807 6.03002 0.0299807 5.97002L0 6.00002L0.0299807 5.95002V5.94002L0.0899402 5.52002C2.67822 7.04002 5.51633 8.00002 7.49501 8.00002C9.49368 8.00002 12.3318 7.05002 14.9101 5.53002C14.9101 5.53002 14.97 6.08002 14.96 6.17002Z" fill="#014F7F"/>
<path d="M11.2326 2.3001C9.88351 2.7601 8.60436 3.0001 7.49509 3.0001C6.38583 3.0001 5.10669 2.7601 3.76758 2.3001L4.88683 1.6101C5.82621 1.8601 6.71561 2.0001 7.49509 2.0001C8.28457 2.0001 9.16398 1.8601 10.1034 1.6001L11.2326 2.3001Z" fill="#014F7F"/>
<path d="M14.0707 4.08995C11.7223 5.29995 9.37382 5.99995 7.49507 5.99995C5.62631 5.99995 3.28787 5.30995 0.929443 4.07995C0.959423 4.04995 0.97941 4.01995 0.999396 3.99995L1.8888 3.44995C3.93744 4.44995 5.91612 4.99995 7.49507 4.99995C9.08401 4.99995 11.0627 4.43995 13.1013 3.44995L13.9907 3.99995C14.0107 4.02995 14.0407 4.04995 14.0707 4.08995Z" fill="#014F7F"/>
</g>
<defs>
<clipPath id="clip0_7921_34533">
<rect width="16" height="16" fill="white"/>
</clipPath>
</defs>
</svg>
