<svg width="16" height="16" viewBox="0 0 16 16" fill="none" xmlns="http://www.w3.org/2000/svg">
<g clip-path="url(#clip0_63_148)">
<path fill-rule="evenodd" clip-rule="evenodd" d="M8 16H11V13L8 16Z" fill="#BBBBBB"/>
<path fill-rule="evenodd" clip-rule="evenodd" d="M4.18005 14.1736L0 16H8L7.87225 14.8032L6.73456 14.052L4.18005 14.1736Z" fill="#D9D9D9"/>
<path d="M3 13C3 13 4.88693 11.4946 7 11.4946C9.11307 11.4946 11 13 11 13L8 16C8 16 7 14.5 5.53335 14.503C4.06669 14.5061 0 16 0 16L3 13Z" fill="#67B1E6"/>
<path d="M1.8695 14.8376L3.33146 13.3757C3.34334 13.3666 3.36038 13.3537 3.3823 13.3375C3.43263 13.3003 3.50855 13.2458 3.60683 13.1797C3.80376 13.0473 4.08842 12.8699 4.43528 12.6925C5.13655 12.3338 6.05495 11.9946 7 11.9946C7.94505 11.9946 8.86345 12.3338 9.56472 12.6925C9.82215 12.8241 10.0453 12.9558 10.2238 13.0691L8.03804 15.2549C7.92878 15.1363 7.79666 15.0044 7.64367 14.8721C7.16802 14.4609 6.43785 14.0012 5.53231 14.003C5.10298 14.0039 4.52512 14.1105 3.93373 14.2519C3.33106 14.396 2.67346 14.5867 2.06795 14.7753C2.00118 14.7961 1.93499 14.8169 1.8695 14.8376Z" stroke="black" stroke-opacity="0.2"/>
<path d="M3 13C3 13 4.88693 11.4946 7 11.4946C9.11307 11.4946 11 13 11 13L8 16C8 16 7 14.5 5.53335 14.503C4.06669 14.5061 0 16 0 16L3 13Z" fill="#89CBFA"/>
<path fill-rule="evenodd" clip-rule="evenodd" d="M1.89043 13.0174C2.83884 12.7607 4.13532 12.5 5.50003 12.5C6.94428 12.5 8.4158 13.1833 9.48497 13.8205C10.0282 14.1443 10.486 14.4674 10.8083 14.7098C10.9696 14.8311 11.0977 14.9327 11.1861 15.0046C11.2304 15.0405 11.2648 15.0691 11.2885 15.0891L11.3161 15.1124L11.3237 15.1189L11.326 15.1209L11.327 15.1217C11.3271 15.1218 11.3272 15.1219 11 15.5C10.6729 15.8781 10.6729 15.8782 10.673 15.8782L10.6721 15.8775L10.6672 15.8733L10.6454 15.8548C10.6255 15.8381 10.5953 15.813 10.5554 15.7806C10.4757 15.7158 10.3576 15.622 10.2073 15.509C9.90617 15.2826 9.47846 14.9807 8.97301 14.6795C7.94483 14.0667 6.66636 13.5 5.50002 13.5C4.25415 13.5 3.05063 13.7393 2.15169 13.9826C1.70395 14.1038 1.33589 14.2249 1.08104 14.3151C0.953694 14.3602 0.854862 14.3975 0.788747 14.4231C0.755696 14.436 0.730843 14.4459 0.714714 14.4524L0.697138 14.4596L0.693387 14.4611C0.693456 14.4611 0.69306 14.4612 0.500026 14C0.306992 13.5388 0.307089 13.5387 0.307195 13.5387L0.308133 13.5383L0.310149 13.5375L0.316782 13.5347L0.340281 13.5251C0.360428 13.517 0.38946 13.5054 0.426843 13.4909C0.501597 13.4619 0.609833 13.4211 0.74729 13.3724C1.02203 13.2751 1.41449 13.1462 1.89043 13.0174Z" fill="#3E92C6"/>
<path fill-rule="evenodd" clip-rule="evenodd" d="M3.46553 12.6743C3.17016 12.8643 2.99998 13 2.99998 13L1.96588 14.0342C2.02614 14.017 2.0881 13.9998 2.15167 13.9826C3.05061 13.7393 4.25414 13.5 5.50001 13.5C6.66634 13.5 7.94482 14.0667 8.973 14.6795C9.04669 14.7234 9.11873 14.7674 9.18896 14.8111L9.91363 14.0864C9.77793 13.9989 9.63469 13.9097 9.48496 13.8205C8.41579 13.1833 6.94426 12.5 5.50001 12.5C4.79028 12.5 4.099 12.5705 3.46553 12.6743Z" fill="#003C66"/>
<path fill-rule="evenodd" clip-rule="evenodd" d="M1.89043 10.0174C2.83884 9.76067 4.13532 9.5 5.50003 9.5C6.93571 9.5 8.5283 10.1773 9.71401 10.8087C10.3172 11.1299 10.8355 11.4505 11.2032 11.6909C11.3873 11.8112 11.5342 11.9118 11.6358 11.9828C11.6866 12.0183 11.7261 12.0464 11.7532 12.066L11.7846 12.0887L11.7932 12.0949L11.7956 12.0967L11.7966 12.0975C11.7967 12.0976 11.7968 12.0976 11.5 12.5C11.2032 12.9024 11.2033 12.9024 11.2033 12.9025L11.2019 12.9014L11.1958 12.897L11.1694 12.8779C11.1457 12.8608 11.1098 12.8352 11.0628 12.8024C10.9688 12.7367 10.8305 12.6419 10.6561 12.5279C10.3067 12.2995 9.81451 11.9951 9.24398 11.6913C8.08234 11.0727 6.67493 10.5 5.50002 10.5C4.25415 10.5 3.05063 10.7393 2.15169 10.9826C1.70395 11.1038 1.33589 11.2249 1.08104 11.3151C0.953694 11.3602 0.854862 11.3975 0.788747 11.4231C0.755696 11.436 0.730843 11.4459 0.714714 11.4524L0.697138 11.4596L0.693387 11.4611C0.693456 11.4611 0.69306 11.4612 0.500026 11C0.306992 10.5388 0.307089 10.5387 0.307195 10.5387L0.308133 10.5383L0.310149 10.5375L0.316782 10.5347L0.340281 10.5251C0.360428 10.517 0.38946 10.5054 0.426843 10.4909C0.501597 10.4619 0.609833 10.4211 0.74729 10.3724C1.02203 10.2751 1.41449 10.1462 1.89043 10.0174Z" fill="#3E92C6"/>
<path d="M11.0301 5.39071C10.5804 5.16293 10.1433 4.91104 9.72077 4.63612L7.68417 8.75951C7.5218 9.11403 7.50387 9.51785 7.63418 9.88537C7.76449 10.2529 8.03279 10.5552 8.38222 10.7283C8.73165 10.9013 9.13474 10.9315 9.50605 10.8124C9.87736 10.6933 10.1877 10.4343 10.3713 10.0903L12.4176 5.96953C11.9447 5.80234 11.4815 5.6091 11.0301 5.39071Z" fill="#BBBBBB"/>
<path d="M11.9282 6.94612L12.3802 6.03196L8.72641 6.64727L8.28407 7.56402L11.9282 6.94612Z" fill="#808080"/>
<path d="M9.66357 0.251902L8.76922 2.08281C8.53614 2.52765 9.74003 3.63704 11.4963 4.50102C13.2525 5.36501 14.8316 5.65355 15.0776 5.16042L15.972 3.32951L9.66357 0.251902Z" fill="#D9D9D9"/>
<path d="M15.9389 3.36014C16.1838 2.86515 14.978 1.76886 13.2455 0.911495C11.5131 0.0541322 9.91006 -0.239631 9.6651 0.255357C9.42014 0.750345 10.626 1.84664 12.3584 2.704C14.0909 3.56137 15.6939 3.85513 15.9389 3.36014Z" fill="#F3F3F3"/>
<path d="M11.4787 7.85063L7.83983 8.4492L7.68422 8.7595C7.60164 8.93241 7.55163 9.11905 7.53669 9.31008L11.0416 8.74806L11.4787 7.85063Z" fill="#808080"/>
</g>
<defs>
<clipPath id="clip0_63_148">
<rect width="16" height="16" fill="white"/>
</clipPath>
</defs>
</svg>
