<svg width="16" height="16" viewBox="0 0 16 16" fill="none" xmlns="http://www.w3.org/2000/svg">
<g clip-path="url(#clip0_63_115)">
<path fill-rule="evenodd" clip-rule="evenodd" d="M8 16H11V13L8 16Z" fill="#BBBBBB"/>
<path fill-rule="evenodd" clip-rule="evenodd" d="M4.18005 14.1736L0 16H8L7.87225 14.8032L6.73456 14.052L4.18005 14.1736Z" fill="#D9D9D9"/>
<path fill-rule="evenodd" clip-rule="evenodd" d="M0 16L2.99997 13L4.68723 13.1252C4.67911 13.1294 4.67101 13.1335 4.66293 13.1376C4.33716 13.3042 4.06973 13.471 3.88578 13.5947C3.79418 13.6563 3.72432 13.7065 3.67937 13.7397L3.66059 13.7536L1.41422 16H0ZM11 16V13L10 13V13.5195C9.8266 13.4077 9.59994 13.2719 9.33357 13.1358C8.66734 12.7955 7.83202 12.4946 6.99999 12.4946C6.17652 12.4946 5.34989 12.7894 4.68723 13.1252L10 13.5195V16H11Z" fill="#666666"/>
<path d="M9.49825 3.63441L7.24464 8.09773C6.74679 9.08374 7.14252 10.2866 8.12853 10.7845C9.11454 11.2824 10.3174 10.8866 10.8153 9.90061L13.0689 5.43729C13.5668 4.45128 13.171 3.24837 12.185 2.75052C11.199 2.25267 9.99611 2.6484 9.49825 3.63441Z" fill="#BBBBBB"/>
<path d="M11.4292 6.81172L11.9052 5.90399L9.34075 5.96226L8.8539 6.86708L11.4292 6.81172Z" fill="#808080"/>
<path d="M3 13C3 13 4.88693 11.4946 7 11.4946C9.11307 11.4946 11 13 11 13L8 16C8 16 7 14.5 5.53335 14.503C4.06669 14.5061 0 16 0 16L3 13Z" fill="#67B1E6"/>
<path fill-rule="evenodd" clip-rule="evenodd" d="M2.13651 15.2777C0.971741 15.643 0 16 0 16L3 13C3 13 4.88693 11.4946 7 11.4946C8.23777 11.4946 9.39796 12.0111 10.1467 12.4391C10.6762 12.7417 11 13 11 13L8 16C8 16 7.75386 15.6308 7.32671 15.2591C6.89289 14.8816 6.27236 14.5015 5.53335 14.503C4.78363 14.5046 3.35453 14.8957 2.13651 15.2777ZM3.59367 13.8206C3.66887 13.8017 3.74353 13.7833 3.81745 13.7656C4.41273 13.6233 5.03928 13.5041 5.53127 13.503C6.60902 13.5008 7.45271 14.0461 7.97068 14.4939C7.99258 14.5128 8.01408 14.5318 8.03519 14.5506L9.41026 13.1756C9.3862 13.1629 9.36179 13.1503 9.33704 13.1376C8.67036 12.7966 7.83356 12.4946 7 12.4946C6.16644 12.4946 5.32964 12.7966 4.66296 13.1376C4.33718 13.3042 4.06975 13.471 3.88581 13.5947C3.79421 13.6563 3.72434 13.7065 3.67939 13.7397C3.67255 13.7447 3.66628 13.7494 3.66062 13.7536L3.59367 13.8206Z" fill="black" fill-opacity="0.2"/>
<path fill-rule="evenodd" clip-rule="evenodd" d="M1.89043 13.0174C2.83884 12.7607 4.13532 12.5 5.50003 12.5C6.94428 12.5 8.4158 13.1833 9.48497 13.8205C10.0282 14.1443 10.486 14.4674 10.8083 14.7098C10.9696 14.8311 11.0977 14.9327 11.1861 15.0046C11.2304 15.0405 11.2648 15.0691 11.2885 15.0891L11.3161 15.1124L11.3237 15.1189L11.326 15.1209L11.327 15.1217C11.3271 15.1218 11.3272 15.1219 11 15.5C10.6729 15.8781 10.6729 15.8782 10.673 15.8782L10.6721 15.8775L10.6672 15.8733L10.6454 15.8548C10.6255 15.8381 10.5953 15.813 10.5554 15.7806C10.4757 15.7158 10.3576 15.622 10.2073 15.509C9.90617 15.2826 9.47846 14.9807 8.97301 14.6795C7.94483 14.0667 6.66636 13.5 5.50002 13.5C4.25415 13.5 3.05063 13.7393 2.15169 13.9826C1.70395 14.1038 1.33589 14.2249 1.08104 14.3151C0.953694 14.3602 0.854862 14.3975 0.788747 14.4231C0.755696 14.436 0.730843 14.4459 0.714714 14.4524L0.697138 14.4596L0.693387 14.4611C0.693456 14.4611 0.69306 14.4612 0.500026 14C0.306992 13.5388 0.307089 13.5387 0.307195 13.5387L0.308133 13.5383L0.310149 13.5375L0.316782 13.5347L0.340281 13.5251C0.360428 13.517 0.38946 13.5054 0.426843 13.4909C0.501597 13.4619 0.609833 13.4211 0.74729 13.3724C1.02203 13.2751 1.41449 13.1462 1.89043 13.0174Z" fill="#003C66"/>
<path fill-rule="evenodd" clip-rule="evenodd" d="M1.89043 10.0174C2.83884 9.76067 4.13532 9.5 5.50003 9.5C6.93571 9.5 8.5283 10.1773 9.71401 10.8087C10.3172 11.1299 10.8355 11.4505 11.2032 11.6909C11.3873 11.8112 11.5342 11.9118 11.6358 11.9828C11.6866 12.0183 11.7261 12.0464 11.7532 12.066L11.7846 12.0887L11.7932 12.0949L11.7956 12.0967L11.7966 12.0975C11.7967 12.0976 11.7968 12.0976 11.5 12.5C11.2032 12.9024 11.2033 12.9024 11.2033 12.9025L11.2019 12.9014L11.1958 12.897L11.1694 12.8779C11.1457 12.8608 11.1098 12.8352 11.0628 12.8024C10.9688 12.7367 10.8305 12.6419 10.6561 12.5279C10.3067 12.2995 9.81451 11.9951 9.24398 11.6913C8.08234 11.0727 6.67493 10.5 5.50002 10.5C4.25415 10.5 3.05063 10.7393 2.15169 10.9826C1.70395 11.1038 1.33589 11.2249 1.08104 11.3151C0.953694 11.3602 0.854862 11.3975 0.788747 11.4231C0.755696 11.436 0.730843 11.4459 0.714714 11.4524L0.697138 11.4596L0.693387 11.4611C0.693456 11.4611 0.69306 11.4612 0.500026 11C0.306992 10.5388 0.307089 10.5387 0.307195 10.5387L0.308133 10.5383L0.310149 10.5375L0.316782 10.5347L0.340281 10.5251C0.360428 10.517 0.38946 10.5054 0.426843 10.4909C0.501597 10.4619 0.609833 10.4211 0.74729 10.3724C1.02203 10.2751 1.41449 10.1462 1.89043 10.0174Z" fill="#003C66"/>
<path d="M7.98366 8.50776C7.96146 8.54963 7.94914 8.59563 7.94742 8.64299L10.5092 8.59438L10.9852 7.68664L8.39084 7.72652L7.98366 8.50776Z" fill="#808080"/>
<path fill-rule="evenodd" clip-rule="evenodd" d="M9.46186 3.64736C9.57334 3.39639 9.73437 3.17067 9.93518 2.9839C10.136 2.79713 10.3724 2.6532 10.63 2.56086C10.8877 2.46852 11.1612 2.42969 11.4339 2.44673C11.7067 2.46377 11.973 2.53632 12.2167 2.65998C12.4604 2.78364 12.6764 2.95583 12.8516 3.1661C13.0268 3.37636 13.1576 3.62031 13.2359 3.88314C13.3143 4.14596 13.3386 4.42218 13.3074 4.69501C13.2762 4.96785 13.1901 5.23162 13.0544 5.47029L10.798 9.99609C10.5395 10.4435 10.121 10.7752 9.62792 10.9235C9.13484 11.0717 8.60448 11.0253 8.14531 10.7938C7.68613 10.5622 7.33283 10.1629 7.15764 9.67763C6.98245 9.19233 6.99861 8.65766 7.20282 8.18295L9.46186 3.64736ZM12.1649 5.01162C12.2861 4.76585 12.3053 4.48202 12.2182 4.22258C12.1311 3.96315 11.9449 3.74935 11.7006 3.62822C11.4562 3.50709 11.1737 3.48856 10.9152 3.5767C10.6567 3.66484 10.4434 3.85243 10.3222 4.0982L8.06575 8.624C7.94324 8.86943 7.92268 9.15344 8.00859 9.41355C8.09451 9.67366 8.27986 9.88857 8.52387 10.011C8.76788 10.1334 9.05057 10.1533 9.30974 10.0664C9.56891 9.97938 9.78333 9.79264 9.90584 9.54721L12.1649 5.01162Z" fill="#666666"/>
<path d="M14.9583 3.87499C15.2072 3.38198 14.21 2.37694 12.731 1.63016C11.252 0.88338 9.8512 0.677655 9.60227 1.17066C9.35335 1.66366 10.3505 2.66871 11.8295 3.41549C13.3086 4.16227 14.7093 4.36799 14.9583 3.87499Z" fill="#F3F3F3"/>
<path d="M11.9335 3.1888C10.4567 2.4411 9.37556 1.53026 9.59759 1.16529L8.91769 2.50497C8.73689 2.87063 9.77935 3.77112 11.2632 4.53107C12.7471 5.29102 14.0885 5.57799 14.279 5.21491L14.9589 3.87523C14.7633 4.25763 13.4303 3.90046 11.9335 3.1888Z" fill="#D9D9D9"/>
<path fill-rule="evenodd" clip-rule="evenodd" d="M8.70275 0.718453C9.36005 -0.575516 11.4366 0.136186 13.0602 0.954277C14.6838 1.77237 16.4988 3.03516 15.8731 4.32723L15.2028 5.66949C14.5081 7.0259 12.1683 6.09874 10.8357 5.43108C9.50311 4.76343 7.3564 3.46353 8.05183 2.06589L8.70275 0.718453ZM14.9589 3.87522C15.1494 3.51215 14.0972 2.60907 12.623 1.85171C11.1488 1.09435 9.79772 0.804792 9.60725 1.16787L8.91769 2.50496C8.73689 2.87062 9.77935 3.77111 11.2632 4.53106C12.7471 5.29101 14.0885 5.57798 14.279 5.2149L14.9589 3.87522Z" fill="#666666"/>
</g>
<defs>
<clipPath id="clip0_63_115">
<rect width="16" height="16" fill="white"/>
</clipPath>
</defs>
</svg>
