<svg width="16" height="16" viewBox="0 0 16 16" fill="none" xmlns="http://www.w3.org/2000/svg">
<g clip-path="url(#clip0_5700_23717)">
<path d="M1.7601 10.19L10.1901 1.76004L8.7801 0.350038C7.7801 -0.649962 5.1401 0.480038 2.7801 2.81004C0.420102 5.14004 -0.649898 7.81004 0.320102 8.81004L1.0201 9.52004L1.7601 10.19Z" fill="#D9D9D9"/>
<path d="M7.72649 7.72356C10.054 5.39603 11.1557 2.72408 10.1872 1.75558C9.21872 0.787076 6.54676 1.88878 4.21924 4.21631C1.89171 6.54383 0.790007 9.21579 1.75851 10.1843C2.72701 11.1528 5.39896 10.0511 7.72649 7.72356Z" fill="#F3F3F3"/>
<path d="M7.02645 7.0236C8.57683 5.47322 9.36196 3.74468 8.78008 3.16279C8.1982 2.58091 6.46966 3.36604 4.91927 4.91642C3.36889 6.4668 2.58377 8.19534 3.16565 8.77722C3.74753 9.3591 5.47607 8.57398 7.02645 7.0236Z" fill="#89CBFA"/>
<path d="M10.1861 15.8114L15.8076 10.1899L8.77898 3.1613L3.15748 8.7828L10.1861 15.8114Z" fill="#89CBFA"/>
<path d="M14.0584 14.0534C15.6088 12.503 16.3939 10.7745 15.8121 10.1926C15.2302 9.6107 13.5016 10.3958 11.9513 11.9462C10.4009 13.4966 9.61575 15.2251 10.1976 15.807C10.7795 16.3889 12.5081 15.6038 14.0584 14.0534Z" fill="#B2DFFF"/>
<path d="M7.7301 5.55C8.01632 5.54985 8.29974 5.60631 8.56404 5.71615C8.82834 5.82599 9.0683 5.98703 9.27011 6.19L10.6801 7.59C10.8817 7.7923 11.0412 8.03256 11.1493 8.2969C11.2575 8.56124 11.3121 8.8444 11.3101 9.13C11.3141 9.4174 11.2605 9.70269 11.1524 9.969C11.0443 10.2353 10.8838 10.4772 10.6806 10.6805C10.4774 10.8837 10.2354 11.0442 9.96911 11.1523C9.7028 11.2604 9.4175 11.314 9.13011 11.31C8.84451 11.312 8.56135 11.2574 8.29701 11.1492C8.03267 11.0411 7.7924 10.8816 7.59011 10.68L6.1901 9.27C5.88583 8.96513 5.67868 8.57696 5.59481 8.15448C5.51094 7.73199 5.55411 7.29413 5.71886 6.89615C5.88362 6.49818 6.16257 6.15793 6.52052 5.91834C6.87847 5.67876 7.29938 5.55059 7.7301 5.55ZM7.7301 4.75C6.93962 4.75069 6.18135 5.06334 5.6201 5.62C5.06439 6.18166 4.75269 6.93988 4.75269 7.73C4.75269 8.52012 5.06439 9.27834 5.6201 9.84L7.0001 11.24C7.56133 11.7927 8.31742 12.1025 9.1051 12.1025C9.89279 12.1025 10.6489 11.7927 11.2101 11.24C11.7628 10.6788 12.0726 9.92269 12.0726 9.135C12.0726 8.34732 11.7628 7.59123 11.2101 7.03L9.84011 5.62C9.27886 5.06334 8.52059 4.75069 7.7301 4.75Z" fill="#014F7F"/>
</g>
<defs>
<clipPath id="clip0_5700_23717">
<rect width="16" height="16" fill="white"/>
</clipPath>
</defs>
</svg>
