<svg width="16" height="16" viewBox="0 0 16 16" fill="none" xmlns="http://www.w3.org/2000/svg">
<g clip-path="url(#clip0_5700_23714)">
<path d="M2.13009 9.20017L9.20009 2.13017L8.49009 1.42017C7.49009 0.420171 5.14009 1.23017 3.19009 3.19017C1.24009 5.15017 0.440092 7.51017 1.42009 8.49017L2.13009 9.20017Z" fill="#D9D9D9"/>
<path d="M7.43215 7.42773C9.38477 5.47511 10.1762 3.10074 9.19992 2.12443C8.22361 1.14812 5.84924 1.93958 3.89662 3.8922C1.944 5.84482 1.15254 8.21919 2.12885 9.1955C3.10516 10.1718 5.47953 9.38036 7.43215 7.42773Z" fill="#F3F3F3"/>
<path d="M7.33005 0.999864C7.5418 0.987328 7.75388 1.01811 7.95333 1.09032C8.15278 1.16254 8.33541 1.27467 8.49005 1.41986L9.20005 2.12986C10.2001 3.12986 9.38005 5.47986 7.43005 7.42986C6.35969 8.63405 4.88857 9.4087 3.29005 9.60986C3.07911 9.62257 2.86775 9.59284 2.66851 9.52241C2.46926 9.45199 2.28616 9.34231 2.13005 9.19986L1.42005 8.48986C0.420052 7.48986 1.23005 5.13986 3.19005 3.18986C4.25534 1.97756 5.72845 1.19831 7.33005 0.999864ZM7.33005 -0.000135629C5.45942 0.188515 3.72816 1.07378 2.48005 2.47986C1.4908 3.43328 0.731618 4.59942 0.260052 5.88986C0.0136244 6.42751 -0.0749131 7.02412 0.00475977 7.61016C0.0844327 8.1962 0.329034 8.74752 0.710052 9.19986L1.42005 9.89986C1.66747 10.1386 1.96078 10.3246 2.28222 10.4467C2.60366 10.5687 2.94653 10.6242 3.29005 10.6099C5.15841 10.421 6.8885 9.53989 8.14005 8.13986C10.5501 5.71986 11.3101 2.82986 9.90005 1.41986L9.20005 0.709864C8.95067 0.473919 8.65702 0.2897 8.33606 0.167839C8.0151 0.0459781 7.67319 -0.0111117 7.33005 -0.000135629Z" fill="#666666"/>
<path d="M6.72514 6.72063C8.28724 5.15853 9.07869 3.41733 8.4929 2.83154C7.90712 2.24575 6.16591 3.03721 4.60382 4.59931C3.04172 6.1614 2.25026 7.90261 2.83605 8.48839C3.42184 9.07418 5.16304 8.28272 6.72514 6.72063Z" fill="#67B1E6"/>
<path d="M9.89637 15.5641L15.5532 9.90723L8.48215 2.83616L2.8253 8.49301L9.89637 15.5641Z" fill="#67B1E6"/>
<path d="M13.7935 13.7905C15.3556 12.2284 16.1471 10.4872 15.5613 9.90136C14.9755 9.31558 13.2343 10.107 11.6722 11.6691C10.1101 13.2312 9.31862 14.9724 9.90441 15.5582C10.4902 16.144 12.2314 15.3525 13.7935 13.7905Z" fill="#89CBFA"/>
<rect x="4.35621" y="8.05762" width="5.21014" height="6.39226" rx="2.59079" transform="rotate(-45 4.35621 8.05762)" stroke="#003C66" stroke-width="0.8"/>
<rect y="0.565685" width="1.51652" height="2.94953" rx="0.758262" transform="matrix(-0.707107 0.707107 0.707107 0.707107 7.59976 6.54459)" stroke="#003C66" stroke-width="0.8"/>
</g>
<defs>
<clipPath id="clip0_5700_23714">
<rect width="16" height="16" fill="white"/>
</clipPath>
</defs>
</svg>
